<?xml version="1.0" encoding="UTF-8"?>
<svg width="1024" height="1024" viewBox="0 0 1024 1024" xmlns="http://www.w3.org/2000/svg">
    <defs>
        <linearGradient id="oceanGradient" x1="0%" y1="0%" x2="0%" y2="100%">
            <stop offset="0%" style="stop-color:#1E3A5F;stop-opacity:1" />
            <stop offset="100%" style="stop-color:#2C5F8D;stop-opacity:1" />
        </linearGradient>
        
        <linearGradient id="waveGradient1" x1="0%" y1="0%" x2="0%" y2="100%">
            <stop offset="0%" style="stop-color:#3A7BC8;stop-opacity:0.9" />
            <stop offset="100%" style="stop-color:#2C5F8D;stop-opacity:0.7" />
        </linearGradient>
        
        <linearGradient id="waveGradient2" x1="0%" y1="0%" x2="0%" y2="100%">
            <stop offset="0%" style="stop-color:#4A90E2;stop-opacity:0.7" />
            <stop offset="100%" style="stop-color:#3A7BC8;stop-opacity:0.5" />
        </linearGradient>
        
        <linearGradient id="waveGradient3" x1="0%" y1="0%" x2="0%" y2="100%">
            <stop offset="0%" style="stop-color:#5BA3E8;stop-opacity:0.6" />
            <stop offset="100%" style="stop-color:#4A90E2;stop-opacity:0.4" />
        </linearGradient>
        
        <linearGradient id="circleGradient" x1="0%" y1="0%" x2="100%" y2="100%">
            <stop offset="0%" style="stop-color:#7EC8E3;stop-opacity:1" />
            <stop offset="100%" style="stop-color:#5BA3E8;stop-opacity:1" />
        </linearGradient>
    </defs>
    
    <rect width="1024" height="1024" fill="url(#oceanGradient)"/>
    
    <path d="M 0 650 Q 170 600 340 630 Q 510 660 680 610 Q 850 560 1024 590 L 1024 1024 L 0 1024 Z" 
          fill="url(#waveGradient1)"/>
    
    <path d="M 0 720 Q 128 680 256 710 Q 384 740 512 700 Q 640 660 768 700 Q 896 740 1024 710 L 1024 1024 L 0 1024 Z" 
          fill="url(#waveGradient2)"/>
    
    <path d="M 0 800 Q 102 770 204 790 Q 307 810 410 780 Q 512 750 614 775 Q 717 800 819 770 Q 921 740 1024 760 L 1024 1024 L 0 1024 Z" 
          fill="url(#waveGradient3)"/>
    
    <ellipse cx="340" cy="625" rx="40" ry="15" fill="#7EC8E3" opacity="0.3"/>
    <ellipse cx="680" cy="605" rx="35" ry="12" fill="#7EC8E3" opacity="0.3"/>
    <ellipse cx="256" cy="705" rx="30" ry="10" fill="#A8D5E2" opacity="0.4"/>
    <ellipse cx="512" cy="695" rx="35" ry="12" fill="#A8D5E2" opacity="0.4"/>
    <ellipse cx="768" cy="695" rx="30" ry="10" fill="#A8D5E2" opacity="0.4"/>
    
    <circle cx="512" cy="400" r="180" fill="url(#circleGradient)" opacity="0.3"/>
    <circle cx="512" cy="400" r="150" fill="url(#circleGradient)" opacity="0.4"/>
    <circle cx="512" cy="400" r="120" fill="url(#circleGradient)" opacity="0.6"/>
    <circle cx="512" cy="400" r="90" fill="#7EC8E3"/>
    
    <circle cx="512" cy="400" r="60" fill="#A8D5E2" opacity="0.8"/>
    <circle cx="512" cy="400" r="35" fill="#D4EBF2" opacity="0.9"/>
    
    <circle cx="512" cy="400" r="220" fill="none" stroke="#7EC8E3" stroke-width="3" opacity="0.3"/>
    <circle cx="512" cy="400" r="260" fill="none" stroke="#7EC8E3" stroke-width="2" opacity="0.2"/>
    <circle cx="512" cy="400" r="300" fill="none" stroke="#7EC8E3" stroke-width="1.5" opacity="0.1"/>
</svg>